<?xml version="1.0" standalone="no"?>
<!DOCTYPE svg PUBLIC "-//W3C//DTD SVG 20010904//EN"
 "http://www.w3.org/TR/2001/REC-SVG-20010904/DTD/svg10.dtd">
<svg version="1.0" xmlns="http://www.w3.org/2000/svg"
 width="195.000000pt" height="195.000000pt" viewBox="0 0 195.000000 195.000000"
 preserveAspectRatio="xMidYMid meet">
<metadata>
Created by potrace 1.11, written by Peter Selinger 2001-2013
</metadata>
<g transform="translate(0.000000,195.000000) scale(0.100000,-0.100000)"
fill="#000000" stroke="none">
<path d="M855 1939 c-28 -3 -60 -9 -70 -13 -20 -6 -20 -18 -20 -616 0 -335 -2
-610 -6 -610 -3 0 -20 51 -37 113 -30 110 -94 338 -131 467 -10 36 -31 108
-45 160 -15 52 -36 128 -48 168 l-22 72 -87 0 -87 0 -59 -64 c-110 -121 -195
-296 -228 -468 -14 -78 -16 -287 -2 -343 3 -11 10 -41 16 -67 36 -159 138
-334 268 -460 l58 -58 62 60 62 60 -67 68 c-164 164 -245 371 -237 602 2 52 8
110 14 128 5 18 10 35 10 37 1 3 1 6 2 8 0 1 2 9 4 17 10 47 42 120 77 179 74
121 64 129 130 -101 31 -112 60 -212 62 -223 6 -24 170 -604 197 -695 10 -36
36 -126 57 -200 l38 -135 69 -10 c39 -6 77 -10 85 -10 13 0 15 115 18 966 2
915 1 967 -15 971 -10 2 -41 1 -68 -3z"/>
<path d="M1003 978 c0 -687 3 -968 11 -969 62 -6 208 24 307 62 363 140 609
487 618 871 l2 85 -80 48 c-45 26 -83 51 -86 56 -3 4 -13 5 -23 2 -16 -6 -322
-181 -332 -190 -5 -4 21 -56 58 -116 l23 -38 57 32 c31 18 86 50 121 71 34 21
69 38 76 38 22 0 10 -78 -31 -220 -12 -41 -81 -168 -116 -213 -45 -58 -131
-141 -183 -177 -67 -46 -179 -99 -216 -102 l-33 -3 -1 763 0 764 29 -6 c16 -3
56 -18 90 -33 177 -78 324 -226 406 -407 16 -37 33 -66 37 -67 32 -4 157 -3
163 1 14 9 -53 172 -103 252 -127 204 -327 357 -549 422 -76 22 -111 28 -219
40 l-26 3 0 -969z"/>
</g>
</svg>
